<?xml version="1.0" standalone="no"?>
<!DOCTYPE svg PUBLIC "-//W3C//DTD SVG 20010904//EN"
 "http://www.w3.org/TR/2001/REC-SVG-20010904/DTD/svg10.dtd">
<svg version="1.0" xmlns="http://www.w3.org/2000/svg"
 width="294.000000pt" height="294.000000pt" viewBox="0 0 294.000000 294.000000"
 preserveAspectRatio="xMidYMid meet">
<metadata>
Created by potrace 1.14, written by Peter Selinger 2001-2017
</metadata>
<g transform="translate(0.000000,294.000000) scale(0.100000,-0.100000)"
fill="#000000" stroke="none">
<path d="M1021 2751 c-23 -6 -43 -38 -35 -53 2 -3 -12 -12 -31 -18 -19 -6 -40
-20 -45 -30 -5 -10 -22 -21 -37 -25 -44 -10 -118 -66 -154 -114 -31 -43 -69
-135 -69 -166 0 -8 -8 -15 -17 -15 -9 0 -34 -12 -56 -27 -49 -34 -118 -103
-103 -103 6 0 4 -5 -4 -10 -8 -5 -12 -10 -8 -10 4 0 -4 -30 -18 -66 -20 -53
-24 -81 -22 -137 4 -105 7 -104 146 47 l42 47 83 -2 c61 -1 92 -7 122 -23 25
-13 65 -22 105 -24 54 -3 75 1 122 22 64 29 100 33 118 11 32 -39 -12 -86
-160 -171 -237 -135 -436 -317 -508 -464 -29 -60 -42 -129 -42 -233 0 -149 21
-241 83 -367 29 -57 51 -108 49 -113 -1 -5 2 -6 7 -3 4 3 21 -12 35 -35 81
-121 215 -229 367 -293 47 -20 58 -29 64 -55 3 -16 15 -42 26 -56 17 -20 22
-45 25 -123 8 -148 5 -142 69 -142 l55 0 0 121 c0 97 3 127 17 150 17 28 21
30 76 27 55 -3 58 -4 76 -40 10 -21 20 -35 23 -33 6 6 46 -39 73 -81 11 -17
37 -56 58 -88 l38 -56 90 0 90 0 -20 26 c-12 15 -21 31 -21 35 0 5 -27 47 -61
94 -52 73 -60 91 -57 123 3 40 7 43 128 97 30 13 109 53 175 90 293 160 376
192 469 181 58 -6 118 -36 165 -79 36 -34 81 -100 81 -118 0 -13 29 -43 36
-37 2 3 12 38 20 79 12 57 15 107 10 214 -9 229 -66 407 -177 551 -107 138
-291 290 -429 354 -208 98 -459 116 -690 52 -195 -55 -298 -115 -427 -254 -20
-21 -41 -34 -49 -31 -10 4 -12 0 -7 -13 5 -14 3 -16 -11 -11 -10 4 -15 3 -11
-3 3 -6 -1 -10 -10 -10 -9 0 -22 15 -30 32 -25 61 8 108 165 232 36 28 76 59
90 68 25 17 53 41 171 153 73 69 132 152 148 210 15 55 14 160 -3 223 -11 44
-11 54 0 63 8 6 14 18 14 26 0 11 -4 11 -21 3 -41 -22 -28 -3 14 20 61 34 85
69 50 71 -10 0 -3 5 14 10 18 5 32 13 31 17 -1 4 4 20 10 35 17 40 15 52 -10
81 -20 22 -28 25 -60 20 -38 -7 -47 -21 -28 -40 8 -8 6 -14 -3 -23 -12 -9 -23
-4 -57 29 -23 22 -50 40 -60 40 -10 0 -21 4 -25 9 -3 5 -19 12 -36 16 -23 5
-31 14 -36 37 -7 37 -44 62 -81 55 -21 -4 -33 0 -45 14 -17 20 -34 22 -76 10z"/>
</g>
</svg>
